<?xml version="1.0" encoding="UTF-8" standalone="no"?>
<!-- Created with Inkscape (http://www.inkscape.org/) -->

<svg
   xmlns:dc="http://purl.org/dc/elements/1.1/"
   xmlns:cc="http://creativecommons.org/ns#"
   xmlns:rdf="http://www.w3.org/1999/02/22-rdf-syntax-ns#"
   xmlns:svg="http://www.w3.org/2000/svg"
   xmlns="http://www.w3.org/2000/svg"
   xmlns:sodipodi="http://sodipodi.sourceforge.net/DTD/sodipodi-0.dtd"
   xmlns:inkscape="http://www.inkscape.org/namespaces/inkscape"
   width="320"
   height="320"
   viewBox="0 0 84.666668 84.666663"
   version="1.1"
   id="svg8"
   inkscape:version="0.92.2 5c3e80d, 2017-08-06"
   sodipodi:docname="praat.svg">
  <defs
     id="defs2" />
  <sodipodi:namedview
     id="base"
     pagecolor="#ffffff"
     bordercolor="#666666"
     borderopacity="1.0"
     inkscape:pageopacity="0.0"
     inkscape:pageshadow="2"
     inkscape:zoom="1.63"
     inkscape:cx="120.47568"
     inkscape:cy="151.62183"
     inkscape:document-units="mm"
     inkscape:current-layer="layer1"
     showgrid="false"
     fit-margin-top="0"
     fit-margin-left="0"
     fit-margin-right="0"
     fit-margin-bottom="0"
     units="px"
     inkscape:window-width="1680"
     inkscape:window-height="988"
     inkscape:window-x="0"
     inkscape:window-y="0"
     inkscape:window-maximized="1" />
  <metadata
     id="metadata5">
    <rdf:RDF>
      <cc:Work
         rdf:about="">
        <dc:format>image/svg+xml</dc:format>
        <dc:type
           rdf:resource="http://purl.org/dc/dcmitype/StillImage" />
        <dc:title></dc:title>
      </cc:Work>
    </rdf:RDF>
  </metadata>
  <g
     inkscape:label="Layer 1"
     inkscape:groupmode="layer"
     id="layer1"
     transform="translate(-72.789533,-89.642974)">
    <g
       id="g4598"
       transform="translate(0.99741256,-0.25141936)">
      <g
         id="g3764">
        <path
           sodipodi:nodetypes="sccsccsccscccsccs"
           inkscape:connector-curvature="0"
           id="path3772"
           transform="scale(0.26458333)"
           d="m 417.15703,526.45587 c -17.96104,-0.0221 -38.86915,2.24145 -43.31556,2.88461 -14.16092,2.04831 -9.7147,-0.99173 -13.5888,8.79944 -2.03626,5.14624 -3.47401,6.12452 -3.51422,26.9343 -0.0323,16.72188 2.23517,21.88436 3.21273,24.20125 0.74357,1.76228 3.61614,4.81098 7.20251,7.61656 8.62633,6.74827 19.14732,17.49049 30.65968,31.22609 14.88518,17.75974 20.08339,21.02611 35.2978,23.39539 4.29377,0.66863 14.17904,1.58399 21.16727,1.63539 19.87,0.14623 15.85852,0.13272 22.95069,-9.64015 4.04473,-5.57356 1.45968,-6.99054 -0.38712,-13.34328 -1.8994,-6.53379 -1.42504,-7.95066 -17.00304,-24.2732 -6.99651,-7.33092 -15.36983,-20.86816 -16.21078,-22.4943 -3.2965,-6.37482 4.34149,-18.34659 17.50165,-28.99892 11.84167,-9.58511 9.79237,-7.92484 7.14429,-17.15819 -2.30657,-8.04253 -5.83248,-6.00222 -16.00289,-8.12952 -3.1193,-0.65241 -17.15318,-2.6334 -35.11421,-2.65547 z"
           style="fill:#f3c492;stroke-width:0.94117647" />
        <path
           sodipodi:nodetypes="sssssccsccccccccsscccs"
           inkscape:connector-curvature="0"
           id="path3770"
           transform="scale(0.26458333)"
           d="m 401.43711,346.42985 c -10.71582,-0.22282 -13.73677,4.94558 -21.40694,20.20078 -10.86787,21.61512 -26.09358,37.89984 -55.54258,51.78711 -21.32089,10.0543 -26.57983,11.59429 -31.13454,15.07875 -9.66814,7.39634 -11.71139,12.27141 -9.68898,19.83296 2.7318,10.21391 13.7169,22.99479 32.12851,36.58945 18.15324,13.40383 26.42303,15.54997 42.10883,17.36883 9.08217,1.05312 88.69571,1.7642 101.28554,0.51609 11.77077,-1.1669 18.71392,-2.20285 36.59453,-8.00593 6.98823,-2.26802 20.19595,-6.45507 30.5489,-9.30664 32.00209,-8.81447 37.32536,-10.91537 46.68437,-20.41219 4.2017,-4.26361 4.97315,-6.21879 6.5711,-13.75804 1.59814,-7.53918 1.36574,-10.96883 0.0248,-17.22149 -2.09283,-9.75855 -7.25901,-12.48368 -21.73936,-15.01929 -9.79786,-1.71564 -14.06957,-3.85554 -23.69266,-10.11648 -8.87913,-5.77685 -15.01771,-12.68684 -40.93352,-38.10204 -21.11213,-20.70437 -18.24447,-18.27563 -26.29351,-22.7778 -5.65973,-3.16573 -6.26348,-7.48821 -10.88319,-5.67875 -1.29411,0.50688 -7.21848,0.89109 -11.5689,4.04773 -7.45247,5.40743 -13.84896,9.5751 -16.07658,7.9607 -0.52474,-0.38031 -9.30111,-2.88616 -11.51251,-5.56836 -4.23123,-5.13202 -9.86022,-7.29867 -15.47327,-7.41539 z"
           style="fill:#ee54c1;stroke-width:0.94117647" />
        <path
           sodipodi:nodetypes="csssccccscsc"
           inkscape:connector-curvature="0"
           id="path3768"
           transform="scale(0.26458333)"
           d="m 424.47789,393.25344 c -6.44978,-0.0963 -13.82932,2.26128 -19.43086,4.36969 -11.09125,4.17472 -12.4721,4.12737 -31.10725,22.80515 -15.46249,15.49784 -14.14398,17.19292 -15.93453,21.9786 -3.47629,9.29121 -5.68125,10.39487 1.8785,19.15132 9.88614,11.45106 21.2134,16.331 39.88438,18.90186 3.12038,0.42966 21.13322,1.32331 40.02734,1.18876 31.5566,-0.22496 34.98193,0.57326 42.09375,-1.27156 10.61813,-2.75433 12.50555,-5.77119 17.61249,-10.4786 8.57756,-7.9065 12.27397,-18.59516 10.06453,-30.58624 -3.08118,-16.72206 -5.86665,-20.48302 -37.23608,-33.97616 -21.31709,-9.16925 -35.53906,-11.899 -47.85227,-12.08282 z"
           style="fill:#9b1461;stroke-width:0.94117647" />
        <path
           inkscape:connector-curvature="0"
           id="path3766"
           d="m 116.14096,174.17066 c -3.45344,-0.55946 -6.66848,-1.93788 -8.62697,-3.69873 -0.67752,-0.60915 -2.08937,-2.12915 -3.13744,-3.37777 -2.56622,-3.05726 -6.488972,-7.06773 -8.837049,-9.03464 -1.559772,-1.30657 -1.977709,-1.8083 -2.20288,-2.64452 -0.441657,-1.64019 -0.168485,-11.16443 0.367981,-12.82977 0.616406,-1.91351 1.856411,-3.04905 4.149642,-3.80006 1.843911,-0.60386 1.89434,-0.60632 12.434756,-0.60632 9.69607,0 10.69544,0.039 11.92065,0.46575 3.16431,1.10204 4.5847,4.34534 3.1327,7.15319 -0.18874,0.36498 -1.2717,1.41726 -2.40659,2.33839 -2.39391,1.94302 -3.28403,2.88157 -3.94974,4.16461 -1.00679,1.9404 -0.52696,2.82592 4.20192,7.75463 3.83047,3.99235 5.13233,5.73176 5.52972,7.38829 0.40767,1.69935 -0.0953,3.03522 -1.71227,4.5477 -1.91723,1.79335 -3.12807,2.21408 -6.6311,2.30413 -1.64353,0.0423 -3.54853,-0.0139 -4.23333,-0.12488 z m 6.23993,-3.77338 c 0.73884,-0.18605 1.3627,-0.57036 1.87735,-1.15653 1.34765,-1.53489 0.79575,-2.61119 -4.07033,-7.93783 -3.55453,-3.89095 -5.01224,-5.811 -5.4037,-7.11756 -0.26759,-0.89316 -0.23501,-1.11456 0.33445,-2.27255 0.88885,-1.80745 1.84464,-2.88097 4.86076,-5.45952 1.44983,-1.23949 2.73749,-2.42481 2.86148,-2.63405 0.16726,-0.28226 0.0158,-0.55543 -0.58685,-1.05856 -1.32465,-1.10587 -3.75963,-1.34008 -13.95721,-1.34249 -8.452022,-0.002 -8.88323,0.0205 -9.820203,0.51203 -1.565645,0.82134 -1.916911,1.79148 -2.188618,6.04465 -0.128283,2.00807 -0.156992,4.26736 -0.0638,5.02065 l 0.169443,1.36961 5.148818,5.22941 c 2.83184,2.87617 6.30373,6.48352 7.71529,8.01632 1.78218,1.93525 2.76948,2.81801 3.23072,2.88867 1.52294,0.2333 8.86103,0.15745 9.8924,-0.10225 z m -9.47964,-6.79101 c -0.48042,-0.20935 -0.99979,-0.78646 -1.44664,-1.60748 -0.73116,-1.34338 -1.34875,-1.88749 -3.73796,-3.29322 -2.01208,-1.18385 -6.88831,-6.00514 -7.62328,-7.5374 -0.522623,-1.08955 -0.548292,-1.3036 -0.268384,-2.23785 0.708334,-2.36423 3.251804,-3.6441 7.600284,-3.82445 2.31187,-0.0959 2.87519,-0.0429 3.61079,0.33949 0.73573,0.38248 0.87156,0.58475 0.87156,1.29779 0,1.29058 -0.76635,1.70294 -3.92202,2.1104 -2.79367,0.36071 -3.42405,0.63063 -3.42405,1.4661 0,1.39449 1.50516,2.76031 5.8095,5.27165 4.32752,2.52487 5.7477,4.57247 4.88594,7.0445 -0.20089,0.57629 -1.16114,1.38293 -1.55569,1.30683 -0.0278,-0.005 -0.38782,-0.15672 -0.80005,-0.33636 z M 93.657164,135.77625 c -4.569556,-0.65493 -10.206348,-3.92872 -15.819354,-9.1877 -3.287658,-3.0803 -5.364669,-6.41434 -5.008729,-8.04008 0.539407,-2.46371 3.453969,-5.12273 7.577562,-6.91319 10.00482,-4.34407 15.680301,-8.96187 18.910432,-15.386278 3.137115,-6.239416 8.711455,-8.031934 11.817825,-3.800212 1.42146,1.936419 1.96718,1.984325 4.16592,0.365703 4.03454,-2.970059 4.67875,-3.119689 7.22847,-1.678964 2.08171,1.176273 2.82214,1.811426 7.68128,6.589083 10.12971,9.959868 13.42514,12.417078 17.37675,12.956828 2.02511,0.27661 3.57968,0.82536 4.9105,1.73336 2.20749,1.50614 2.94392,2.92718 2.96325,5.71797 0.0254,3.67477 -1.54079,6.70904 -4.52176,8.75999 -1.65785,1.14063 -4.18897,2.08313 -9.62967,3.58576 -2.74895,0.75921 -6.90309,1.98285 -9.23143,2.71921 -6.31571,1.99739 -6.81499,2.10035 -12.07745,2.49047 -5.43544,0.40295 -23.720099,0.46406 -26.343596,0.0881 z m 28.371626,-3.95668 c 3.20067,-0.32058 6.44168,-1.08401 11.42372,-2.6909 2.12031,-0.68388 5.47997,-1.6354 7.4659,-2.11449 4.46718,-1.07768 6.04848,-1.66226 7.97329,-2.9476 2.10502,-1.40568 2.48553,-2.23632 2.48553,-5.42585 0,-2.06232 -0.0774,-2.5775 -0.44195,-2.94206 -0.24307,-0.24307 -2.76027,-1.20439 -5.59378,-2.13626 l -5.15184,-1.69431 -1.81455,-1.6583 c -0.998,-0.91207 -4.3919,-4.1284 -7.542,-7.14741 -5.47214,-5.244409 -9.68751,-9.084516 -9.97228,-9.084516 -0.30041,0 -2.30625,1.125819 -3.9325,2.207204 -1.62591,1.08116 -1.8407,1.154561 -3.3785,1.154561 -1.61178,0 -1.68331,-0.02884 -3.86075,-1.556373 -2.37652,-1.667197 -3.46015,-1.948955 -4.55264,-1.183747 -0.2926,0.204945 -1.56768,1.801783 -2.83351,3.54853 -6.611843,9.123801 -11.006881,12.803941 -18.908052,15.832451 -3.00579,1.15211 -5.424818,2.57201 -6.013472,3.52973 -0.754919,1.22822 -0.593819,2.22348 0.666858,4.11981 2.021558,3.04086 5.657311,6.02275 11.188125,9.17603 l 2.230727,1.2718 h 13.991414 c 7.83917,0 15.12538,-0.11358 16.57026,-0.2583 z m -12.48685,-3.45788 c -5.22713,-0.17587 -6.65723,-0.4074 -9.543562,-1.54508 -2.652232,-1.04542 -6.008094,-3.81809 -7.099814,-5.86599 -0.47832,-0.89726 -0.350622,-3.03252 0.256897,-4.2956 0.651414,-1.35433 7.738839,-8.6768 10.146349,-10.48284 2.98868,-2.24201 5.69643,-3.27821 8.53164,-3.26486 3.81585,0.0179 7.18423,0.92824 13.41454,3.62521 6.72402,2.91069 8.91761,4.4425 10.16215,7.09636 0.58024,1.23729 0.65239,1.6947 0.65239,4.13593 0,2.59876 -0.0435,2.83305 -0.81693,4.40386 -1.50631,3.05914 -4.18703,4.75997 -9.14386,5.80148 -2.35852,0.49557 -8.88294,0.64983 -16.5598,0.39153 z m 17.04428,-2.87184 c 4.32773,-1.24372 6.73266,-3.67113 7.04452,-7.11037 0.17555,-1.93605 -0.47679,-4.1056 -1.53188,-5.09463 -1.54025,-1.44384 -8.75129,-4.99623 -12.84835,-6.32951 -3.85589,-1.2548 -7.52867,-1.606 -9.76302,-0.93356 -1.92839,0.58036 -3.89382,2.11172 -8.46434,6.59495 -3.371266,3.30689 -4.507362,4.58077 -4.823451,5.40843 -0.408824,1.07049 -0.405986,1.09547 0.252124,2.21845 1.071606,1.82855 4.401507,4.11567 7.413447,5.09186 1.72362,0.55864 5.03895,0.72288 13.14726,0.65131 6.7371,-0.0595 8.34121,-0.14273 9.57369,-0.49693 z"
           style="fill:#110a0e;stroke-width:0.24901961" />
      </g>
    </g>
  </g>
</svg>
